<svg preserveAspectRatio="none" overflow="visible" style="display: block;" width="13.75" height="16.25" viewBox="0 0 13.75 16.25" fill="none" xmlns="http://www.w3.org/2000/svg">
<g id="Alert / Notifications">
<path d="M6.85841 0C6.34956 0 5.91261 0.186405 5.54757 0.559211C5.23392 0.879526 5.05502 1.24841 5.01086 1.66586C4.19379 2.04996 3.47407 2.70011 2.98712 3.61619C2.72849 4.10274 2.55897 4.63459 2.48792 5.18351L2.08408 8.30345C2.01846 8.81045 1.82774 9.29205 1.52987 9.703L0.189726 11.5519C-0.155954 12.0288 -0.0141153 12.7074 0.492055 12.9984C0.636497 13.0814 0.799429 13.125 0.965154 13.125H12.7848C12.9506 13.125 13.1135 13.0814 13.2579 12.9984C13.7641 12.7074 13.906 12.0288 13.5603 11.5519L12.2201 9.703C11.9223 9.29206 11.7315 8.81045 11.6659 8.30345L11.2605 5.17131C11.1905 4.63034 11.0251 4.10679 10.7725 3.62605C10.286 2.7002 9.56162 2.045 8.7382 1.66031C8.69168 1.24514 8.50756 0.878108 8.18584 0.559212C7.80973 0.186405 7.36726 0 6.85841 0Z" fill="white"/>
<path d="M6.89712 16.25C7.57559 16.25 8.15819 16.0636 8.64491 15.6908C9.02902 15.3966 9.26157 15.0614 9.34255 14.6852C9.37887 14.5165 9.23509 14.375 9.0625 14.375H4.6875C4.51491 14.375 4.37105 14.5166 4.4084 14.6851C4.49181 15.0613 4.73141 15.3965 5.12721 15.6908C5.62869 16.0636 6.21866 16.25 6.89712 16.25Z" fill="white"/>
</g>
</svg>
